<svg xmlns="http://www.w3.org/2000/svg" version="1.1" xmlns:xlink="http://www.w3.org/1999/xlink" xmlns:svgjs="http://svgjs.dev/svgjs" viewBox="0 0 800 800"><g fill="none" stroke-width="3" stroke="hsl(105, 69%, 30%)" stroke-linecap="square"><line x1="578.5" y1="400" x2="221.5" y2="400" transform="rotate(0, 400, 400)" opacity="0.93"></line><line x1="602.5" y1="400" x2="197.5" y2="400" transform="rotate(4, 400, 400)" opacity="0.89"></line><line x1="461" y1="400" x2="339" y2="400" transform="rotate(8, 400, 400)" opacity="0.30"></line><line x1="531.5" y1="400" x2="268.5" y2="400" transform="rotate(12, 400, 400)" opacity="0.32"></line><line x1="140.5" y1="400" x2="659.5" y2="400" transform="rotate(16, 400, 400)" opacity="0.96"></line><line x1="485" y1="400" x2="315" y2="400" transform="rotate(20, 400, 400)" opacity="0.45"></line><line x1="646" y1="400" x2="154" y2="400" transform="rotate(24, 400, 400)" opacity="0.60"></line><line x1="679.5" y1="400" x2="120.5" y2="400" transform="rotate(28, 400, 400)" opacity="0.17"></line><line x1="141" y1="400" x2="659" y2="400" transform="rotate(32, 400, 400)" opacity="0.93"></line><line x1="725" y1="400" x2="75" y2="400" transform="rotate(36, 400, 400)" opacity="0.96"></line><line x1="492" y1="400" x2="308" y2="400" transform="rotate(40, 400, 400)" opacity="0.92"></line><line x1="566" y1="400" x2="234" y2="400" transform="rotate(44, 400, 400)" opacity="0.99"></line><line x1="26.5" y1="400" x2="773.5" y2="400" transform="rotate(48, 400, 400)" opacity="0.87"></line><line x1="161.5" y1="400" x2="638.5" y2="400" transform="rotate(52, 400, 400)" opacity="0.52"></line><line x1="456" y1="400" x2="344" y2="400" transform="rotate(56, 400, 400)" opacity="0.28"></line><line x1="229" y1="400" x2="571" y2="400" transform="rotate(60, 400, 400)" opacity="0.78"></line><line x1="243.5" y1="400" x2="556.5" y2="400" transform="rotate(64, 400, 400)" opacity="0.81"></line><line x1="493.5" y1="400" x2="306.5" y2="400" transform="rotate(68, 400, 400)" opacity="0.54"></line><line x1="49" y1="400" x2="751" y2="400" transform="rotate(72, 400, 400)" opacity="0.86"></line><line x1="129" y1="400" x2="671" y2="400" transform="rotate(76, 400, 400)" opacity="0.69"></line><line x1="452.5" y1="400" x2="347.5" y2="400" transform="rotate(80, 400, 400)" opacity="0.44"></line><line x1="424" y1="400" x2="376" y2="400" transform="rotate(84, 400, 400)" opacity="0.52"></line><line x1="366" y1="400" x2="434" y2="400" transform="rotate(88, 400, 400)" opacity="0.92"></line><line x1="515" y1="400" x2="285" y2="400" transform="rotate(92, 400, 400)" opacity="0.81"></line><line x1="361" y1="400" x2="439" y2="400" transform="rotate(96, 400, 400)" opacity="0.87"></line><line x1="92.5" y1="400" x2="707.5" y2="400" transform="rotate(100, 400, 400)" opacity="0.27"></line><line x1="667.5" y1="400" x2="132.5" y2="400" transform="rotate(104, 400, 400)" opacity="0.65"></line><line x1="619" y1="400" x2="181" y2="400" transform="rotate(108, 400, 400)" opacity="0.60"></line><line x1="285.5" y1="400" x2="514.5" y2="400" transform="rotate(112, 400, 400)" opacity="0.44"></line><line x1="638" y1="400" x2="162" y2="400" transform="rotate(116, 400, 400)" opacity="0.39"></line><line x1="303.5" y1="400" x2="496.5" y2="400" transform="rotate(120, 400, 400)" opacity="0.42"></line><line x1="147.5" y1="400" x2="652.5" y2="400" transform="rotate(124, 400, 400)" opacity="0.49"></line><line x1="616.5" y1="400" x2="183.5" y2="400" transform="rotate(128, 400, 400)" opacity="0.77"></line><line x1="623.5" y1="400" x2="176.5" y2="400" transform="rotate(132, 400, 400)" opacity="0.91"></line><line x1="736" y1="400" x2="64" y2="400" transform="rotate(136, 400, 400)" opacity="0.39"></line><line x1="487" y1="400" x2="313" y2="400" transform="rotate(140, 400, 400)" opacity="0.21"></line><line x1="736.5" y1="400" x2="63.5" y2="400" transform="rotate(144, 400, 400)" opacity="0.62"></line><line x1="175.5" y1="400" x2="624.5" y2="400" transform="rotate(148, 400, 400)" opacity="0.17"></line><line x1="165.5" y1="400" x2="634.5" y2="400" transform="rotate(152, 400, 400)" opacity="0.79"></line><line x1="495" y1="400" x2="305" y2="400" transform="rotate(156, 400, 400)" opacity="0.55"></line><line x1="477.5" y1="400" x2="322.5" y2="400" transform="rotate(160, 400, 400)" opacity="0.53"></line><line x1="176.5" y1="400" x2="623.5" y2="400" transform="rotate(164, 400, 400)" opacity="0.08"></line><line x1="628" y1="400" x2="172" y2="400" transform="rotate(168, 400, 400)" opacity="0.89"></line><line x1="676.5" y1="400" x2="123.5" y2="400" transform="rotate(172, 400, 400)" opacity="0.32"></line><line x1="213.5" y1="400" x2="586.5" y2="400" transform="rotate(176, 400, 400)" opacity="0.38"></line><line x1="675.5" y1="400" x2="124.5" y2="400" transform="rotate(180, 400, 400)" opacity="0.21"></line><line x1="491.5" y1="400" x2="308.5" y2="400" transform="rotate(184, 400, 400)" opacity="0.36"></line><line x1="285.5" y1="400" x2="514.5" y2="400" transform="rotate(188, 400, 400)" opacity="0.70"></line><line x1="305.5" y1="400" x2="494.5" y2="400" transform="rotate(192, 400, 400)" opacity="0.24"></line><line x1="30" y1="400" x2="770" y2="400" transform="rotate(196, 400, 400)" opacity="0.45"></line><line x1="196.5" y1="400" x2="603.5" y2="400" transform="rotate(200, 400, 400)" opacity="0.42"></line><line x1="438.5" y1="400" x2="361.5" y2="400" transform="rotate(204, 400, 400)" opacity="0.23"></line><line x1="125.5" y1="400" x2="674.5" y2="400" transform="rotate(208, 400, 400)" opacity="0.51"></line><line x1="185" y1="400" x2="615" y2="400" transform="rotate(212, 400, 400)" opacity="0.25"></line><line x1="549" y1="400" x2="251" y2="400" transform="rotate(216, 400, 400)" opacity="0.22"></line><line x1="442.5" y1="400" x2="357.5" y2="400" transform="rotate(220, 400, 400)" opacity="0.25"></line><line x1="247" y1="400" x2="553" y2="400" transform="rotate(224, 400, 400)" opacity="0.26"></line><line x1="664.5" y1="400" x2="135.5" y2="400" transform="rotate(228, 400, 400)" opacity="0.26"></line><line x1="324" y1="400" x2="476" y2="400" transform="rotate(232, 400, 400)" opacity="0.68"></line><line x1="498.5" y1="400" x2="301.5" y2="400" transform="rotate(236, 400, 400)" opacity="0.49"></line><line x1="360.5" y1="400" x2="439.5" y2="400" transform="rotate(240, 400, 400)" opacity="0.71"></line><line x1="687.5" y1="400" x2="112.5" y2="400" transform="rotate(244, 400, 400)" opacity="0.46"></line><line x1="393.5" y1="400" x2="406.5" y2="400" transform="rotate(248, 400, 400)" opacity="0.72"></line><line x1="332" y1="400" x2="468" y2="400" transform="rotate(252, 400, 400)" opacity="0.65"></line><line x1="336.5" y1="400" x2="463.5" y2="400" transform="rotate(256, 400, 400)" opacity="0.77"></line><line x1="406" y1="400" x2="394" y2="400" transform="rotate(260, 400, 400)" opacity="0.96"></line><line x1="44.5" y1="400" x2="755.5" y2="400" transform="rotate(264, 400, 400)" opacity="0.50"></line><line x1="528" y1="400" x2="272" y2="400" transform="rotate(268, 400, 400)" opacity="0.55"></line><line x1="185" y1="400" x2="615" y2="400" transform="rotate(272, 400, 400)" opacity="0.56"></line><line x1="508.5" y1="400" x2="291.5" y2="400" transform="rotate(276, 400, 400)" opacity="0.44"></line><line x1="376.5" y1="400" x2="423.5" y2="400" transform="rotate(280, 400, 400)" opacity="0.42"></line><line x1="420.5" y1="400" x2="379.5" y2="400" transform="rotate(284, 400, 400)" opacity="0.31"></line><line x1="71.5" y1="400" x2="728.5" y2="400" transform="rotate(288, 400, 400)" opacity="0.53"></line><line x1="204" y1="400" x2="596" y2="400" transform="rotate(292, 400, 400)" opacity="0.40"></line><line x1="562.5" y1="400" x2="237.5" y2="400" transform="rotate(296, 400, 400)" opacity="0.28"></line><line x1="86" y1="400" x2="714" y2="400" transform="rotate(300, 400, 400)" opacity="0.62"></line><line x1="394.5" y1="400" x2="405.5" y2="400" transform="rotate(304, 400, 400)" opacity="0.95"></line><line x1="157.5" y1="400" x2="642.5" y2="400" transform="rotate(308, 400, 400)" opacity="0.73"></line><line x1="670" y1="400" x2="130" y2="400" transform="rotate(312, 400, 400)" opacity="0.58"></line><line x1="117.5" y1="400" x2="682.5" y2="400" transform="rotate(316, 400, 400)" opacity="0.78"></line><line x1="277.5" y1="400" x2="522.5" y2="400" transform="rotate(320, 400, 400)" opacity="0.44"></line><line x1="218" y1="400" x2="582" y2="400" transform="rotate(324, 400, 400)" opacity="0.44"></line><line x1="614" y1="400" x2="186" y2="400" transform="rotate(328, 400, 400)" opacity="0.84"></line><line x1="450.5" y1="400" x2="349.5" y2="400" transform="rotate(332, 400, 400)" opacity="0.13"></line><line x1="284.5" y1="400" x2="515.5" y2="400" transform="rotate(336, 400, 400)" opacity="0.60"></line><line x1="476.5" y1="400" x2="323.5" y2="400" transform="rotate(340, 400, 400)" opacity="0.39"></line><line x1="641" y1="400" x2="159" y2="400" transform="rotate(344, 400, 400)" opacity="0.69"></line><line x1="288" y1="400" x2="512" y2="400" transform="rotate(348, 400, 400)" opacity="0.59"></line></g></svg>